<svg id="Layer_1" data-name="Layer 1" xmlns="http://www.w3.org/2000/svg" viewBox="0 0 128 128"><defs><style>.cls-1{fill:#2c3e50;}.cls-2{fill:#fff;}</style></defs><rect class="cls-1" width="128" height="128"/><path class="cls-2" d="M36.8,97.4A22.46,22.46,0,0,1,27.05,90,20.22,20.22,0,0,1,23.2,78.2H41.4a8.87,8.87,0,0,0,2.7,6,8.65,8.65,0,0,0,6,2,9.38,9.38,0,0,0,6-1.75,5.84,5.84,0,0,0,2.2-4.85,5.73,5.73,0,0,0-1.75-4.3,14.16,14.16,0,0,0-4.3-2.8A69.44,69.44,0,0,0,45,70a79.26,79.26,0,0,1-11.1-4.2,20.54,20.54,0,0,1-7.4-6.2q-3.11-4.1-3.1-10.7,0-9.8,7.1-15.35T49,28q11.6,0,18.7,5.55T75.3,49H56.8a7.23,7.23,0,0,0-2.5-5.35,8.8,8.8,0,0,0-5.9-1.95,7.35,7.35,0,0,0-5,1.65,6.35,6.35,0,0,0,1.3,10,52.46,52.46,0,0,0,10,4.1,91.92,91.92,0,0,1,11,4.4A21.06,21.06,0,0,1,73.1,68a16.32,16.32,0,0,1,3.1,10.3,20.25,20.25,0,0,1-3,10.9A21.34,21.34,0,0,1,64.3,97a30.37,30.37,0,0,1-13.7,2.9A36.07,36.07,0,0,1,36.8,97.4Z"/><path class="cls-2" d="M87.35,97.35A8.59,8.59,0,0,1,84.5,90.8a8.87,8.87,0,0,1,2.85-6.7,10.25,10.25,0,0,1,7.35-2.7A10.12,10.12,0,0,1,102,84.1a8.87,8.87,0,0,1,2.85,6.7A8.59,8.59,0,0,1,102,97.35,10.22,10.22,0,0,1,94.7,100,10.35,10.35,0,0,1,87.35,97.35Z"/></svg>